HIERARCHY
ROOT Hips
{
 OFFSET 0.000000 0.000000 0.000000
 CHANNELS 6 Xposition Yposition Zposition Yrotation Xrotation Zrotation
 JOINT Chest
 {
  OFFSET 0.000000 9.588913 -0.003946
  CHANNELS 3 Yrotation Xrotation Zrotation
  JOINT Chest2
  {
   OFFSET 0.000000 9.541882 0.008053
   CHANNELS 3 Yrotation Xrotation Zrotation
   JOINT Chest3
   {
    OFFSET 0.000000 9.501360 0.000000
    CHANNELS 3 Yrotation Xrotation Zrotation
    JOINT Chest4
    {
     OFFSET 0.000000 9.491660 0.000000
     CHANNELS 3 Yrotation Xrotation Zrotation
     JOINT Neck
     {
      OFFSET 0.000000 14.331917 0.000000
      CHANNELS 3 Yrotation Xrotation Zrotation
      JOINT Head
      {
       OFFSET 0.000000 8.884799 0.017034
       CHANNELS 3 Yrotation Xrotation Zrotation
       End Site
       {
        OFFSET 0.000000 16.896195 0.008993
       }
      }
     }
     JOINT RightCollar
     {
      OFFSET -2.923010 9.499495 0.000000
      CHANNELS 3 Yrotation Xrotation Zrotation
      JOINT RightShoulder
      {
       OFFSET -13.795216 0.000000 0.000000
       CHANNELS 3 Yrotation Xrotation Zrotation
       JOINT RightElbow
       {
        OFFSET -30.272209 0.000000 0.000000
        CHANNELS 3 Yrotation Xrotation Zrotation
        JOINT RightWrist
        {
         OFFSET -24.478199 0.000000 0.000000
         CHANNELS 3 Yrotation Xrotation Zrotation
         End Site
         {
          OFFSET -18.090752 0.000000 0.000000
         }
        }
       }
      }
     }
     JOINT LeftCollar
     {
      OFFSET 2.923010 9.499495 0.000000
      CHANNELS 3 Yrotation Xrotation Zrotation
      JOINT LeftShoulder
      {
       OFFSET 13.795216 0.000000 0.000000
       CHANNELS 3 Yrotation Xrotation Zrotation
       JOINT LeftElbow
       {
        OFFSET 30.272209 0.000000 0.000000
        CHANNELS 3 Yrotation Xrotation Zrotation
        JOINT LeftWrist
        {
         OFFSET 24.478199 0.000000 0.000000
         CHANNELS 3 Yrotation Xrotation Zrotation
         End Site
         {
          OFFSET 18.090752 0.000000 0.000000
         }
        }
       }
      }
     }
    }
   }
  }
 }
 JOINT RightHip
 {
  OFFSET -7.826875 0.019532 0.001973
  CHANNELS 3 Yrotation Xrotation Zrotation
  JOINT RightKnee
  {
   OFFSET 0.000000 -40.546152 -0.001885
   CHANNELS 3 Yrotation Xrotation Zrotation
   JOINT RightAnkle
   {
    OFFSET 0.000000 -39.417092 -0.003189
    CHANNELS 3 Yrotation Xrotation Zrotation
    JOINT RightToe
    {
     OFFSET 0.000000 -7.579396 17.243563
     CHANNELS 3 Yrotation Xrotation Zrotation
     End Site
     {
      OFFSET 0.000000 -1.500329 6.694466
     }
    }
   }
  }
 }
 JOINT LeftHip
 {
  OFFSET 7.826875 0.019532 0.001973
  CHANNELS 3 Yrotation Xrotation Zrotation
  JOINT LeftKnee
  {
   OFFSET 0.000000 -40.546152 -0.001885
   CHANNELS 3 Yrotation Xrotation Zrotation
   JOINT LeftAnkle
   {
    OFFSET 0.000000 -39.417092 -0.003189
    CHANNELS 3 Yrotation Xrotation Zrotation
    JOINT LeftToe
    {
     OFFSET 0.000000 -7.579396 17.243563
     CHANNELS 3 Yrotation Xrotation Zrotation
     End Site
     {
      OFFSET 0.000000 -1.500329 6.694466
     }
    }
   }
  }
 }
}
MOTION
Frames: 5
Frame Time: 0.008333
0.000000 87.345680 0.000000 0.000000 -5.767889 0.000000 0.000000 11.653876 0.000000 0.000000 -5.885988 0.000000 0.000000 -0.000000 0.000000 0.000000 -0.000000 0.000000 0.000000 12.528808 0.000000 0.000000 0.711711 0.000000 0.000000 -0.000000 0.000000 0.000000 -0.000000 0.000000 2.309063 -0.000000 0.000000 -2.309063 -0.000000 -0.000000 0.000000 -0.000000 0.000000 0.000000 0.000000 0.000000 -2.309063 0.000000 0.000000 2.309063 -0.000000 0.000000 0.000000 8.520374 0.000000 0.000000 1.905768 0.000000 -0.000000 -4.658254 0.000000 0.000000 -0.000000 0.000000 0.000000 8.520374 0.000000 0.000000 1.905768 0.000000 -0.000000 -4.658254 0.000000 0.000000 -0.000000 0.000000
1.346621 49.699522 -3.700884 9.043868 -17.139876 -0.131482 10.627372 9.939815 1.672242 5.066875 5.454762 0.400180 6.346771 6.811238 0.576542 5.066873 5.454769 0.400174 -3.636857 15.465499 0.239380 -3.892922 -9.438541 1.081737 4.881642 0.853226 -8.356001 -2.007724 -9.377030 68.431917 100.478127 -0.092054 25.795143 -13.445830 -0.540044 -5.646808 3.218197 -2.676082 3.522975 2.674569 -13.384975 -64.898153 -87.588200 -21.538619 -48.623393 16.255160 1.335229 18.374145 37.461401 -59.077038 -17.745710 146.107162 63.657559 168.716066 -3.281432 -31.213911 -7.771751 -0.055400 -7.249001 0.657736 88.404120 -75.020935 -17.775875 -163.385003 72.102065 -110.556551 4.170588 -16.756920 -25.382613 -0.424822 -0.533054 0.151704
1.359214 49.679007 -3.711113 8.666262 -17.414979 -0.018171 10.910778 9.919414 1.806925 5.074980 5.489980 0.442403 6.357679 6.854647 0.629995 5.074978 5.489986 0.442398 -3.564200 15.454324 0.225583 -3.811073 -9.453190 1.050143 4.851516 0.910444 -8.315038 -1.773830 -9.247766 68.993088 100.522898 0.632689 25.253190 -13.839158 -0.490333 -5.250460 3.217132 -2.657906 3.450737 2.757929 -13.150794 -65.484958 -87.627300 -21.145490 -48.056590 16.385409 1.416238 18.384893 37.103795 -59.081167 -17.130228 146.430040 63.614006 168.799225 -3.384803 -31.011832 -7.670065 -0.039972 -7.350538 0.598376 88.317494 -75.070380 -17.155501 -163.660050 72.076380 -110.853358 4.154920 -16.811302 -25.340752 -0.478085 -0.465016 0.142982
1.371987 49.656952 -3.722373 8.175650 -17.734098 0.124491 11.302283 9.947088 1.957746 5.081634 5.522534 0.480935 6.366715 6.894779 0.678772 5.081632 5.522539 0.480931 -3.493168 15.441516 0.211446 -3.730984 -9.469462 1.018599 4.841557 0.966772 -8.250493 -1.608500 -9.169255 69.536891 100.552905 1.311362 24.808026 -14.111323 -0.446900 -4.940230 3.219090 -2.652441 3.392516 2.829015 -12.911100 -66.082064 -87.667722 -20.739840 -47.452206 16.648677 1.512630 18.344420 36.786987 -59.063998 -16.434984 146.779798 63.570481 168.900656 -3.512376 -30.833739 -7.562661 -0.010150 -7.423839 0.547938 88.112222 -75.127424 -16.306070 -163.907440 72.053415 -111.144291 4.183174 -16.824452 -25.286968 -0.574840 -0.413887 0.114468
1.384978 49.630552 -3.747222 7.826750 -18.004199 0.235469 11.551281 9.940667 2.089299 5.085661 5.549744 0.516497 6.372404 6.928278 0.723719 5.085661 5.549748 0.516494 -3.422666 15.431081 0.194315 -3.650869 -9.483188 0.984052 4.847438 1.024758 -8.168697 -1.514629 -9.155102 70.048214 100.583491 1.948499 24.484204 -14.286207 -0.396503 -4.737380 3.228002 -2.644725 3.330607 2.920145 -12.687425 -66.679534 -87.685616 -20.330627 -46.856773 17.035876 1.629148 18.245611 36.378397 -59.084504 -15.790464 147.174480 63.531821 169.036081 -3.647263 -30.639727 -7.449269 0.024359 -7.509911 0.501741 87.901694 -75.185021 -15.591276 -164.107440 72.025724 -111.408824 4.168262 -16.901282 -25.249222 -0.594200 -0.317996 0.118176
